<svg width="720" height="820" viewBox="0 0 720 820" fill="none" xmlns="http://www.w3.org/2000/svg">
  <defs>
    <linearGradient id="sgadminStackedGradient" x1="36" y1="24" x2="222" y2="230" gradientUnits="userSpaceOnUse">
      <stop offset="0" stop-color="#0B2A7A"/>
      <stop offset="0.55" stop-color="#0D47A1"/>
      <stop offset="1" stop-color="#1A8FE3"/>
    </linearGradient>
    <linearGradient id="sgadminStackedAccent" x1="176" y1="50" x2="204" y2="78" gradientUnits="userSpaceOnUse">
      <stop offset="0" stop-color="#67E8F9"/>
      <stop offset="1" stop-color="#22D3EE"/>
    </linearGradient>
  </defs>

  <g transform="translate(200 72) scale(1.25)">
    <rect x="16" y="16" width="224" height="224" rx="56" fill="url(#sgadminStackedGradient)"/>
    <path opacity="0.2" d="M44 64C67 40 100 26 134 26H220V84H98C77 84 58 92 44 108V64Z" fill="white"/>
    <path d="M176 80H108C89.22 80 74 95.22 74 114C74 132.78 89.22 148 108 148H148C166.78 148 182 163.22 182 182C182 200.78 166.78 216 148 216H80" stroke="#F8FCFF" stroke-width="22" stroke-linecap="round" stroke-linejoin="round"/>
    <circle cx="188" cy="62" r="10" fill="url(#sgadminStackedAccent)"/>
  </g>

  <text x="360" y="530" text-anchor="middle" fill="#0E1A2D" font-size="136" font-weight="800" letter-spacing="1" font-family="Space Grotesk, Manrope, Segoe UI, Arial, sans-serif">SGAdmin</text>
  <text x="360" y="602" text-anchor="middle" fill="#335078" font-size="44" font-weight="600" letter-spacing="0.5" font-family="Manrope, Segoe UI, Arial, sans-serif">Sistema de Gestion Empresarial</text>
</svg>
